<?xml version="1.0" encoding="UTF-8"?>
<!DOCTYPE svg PUBLIC "-//W3C//DTD SVG 1.1//EN" "http://www.w3.org/Graphics/SVG/1.1/DTD/svg11.dtd"><svg version="1.1" viewBox="0 0 1000 1000" preserveAspectRatio="xMidYMid" fill-rule="evenodd" xmlns="http://www.w3.org/2000/svg" xmlns:xlink="http://www.w3.org/1999/xlink"><g visibility="visible" id="Standard"><desc>Master slide</desc><g style="stroke:none;fill:none"><rect x="0" y="0" width="1000" height="1000"/></g></g><g visibility="visible" id="page1"><desc>Slide</desc><g><desc>Drawing</desc><g><g style="stroke:rgb(0,0,0);stroke-width:50;stroke-linejoin:round;fill:none"><path style="fill:none" d="M 500,212 L 500,784"/></g><g style="stroke:none;fill:rgb(0,0,0)"><path d="M 599,219 L 511,20 506,14 500,11 494,14 490,19 401,219 400,221 400,223 401,227 403,231 407,234 411,235 589,235 593,234 597,231 599,227 600,223 600,221 599,219 Z"/><path d="M 401,777 L 489,976 494,982 500,985 506,982 510,977 599,777 600,775 600,773 599,769 597,765 593,762 589,761 411,761 407,762 403,765 401,769 400,773 400,775 401,777 Z"/></g><g/></g></g></g></svg>